<?xml version="1.0" standalone="no"?><!DOCTYPE svg PUBLIC "-//W3C//DTD SVG 1.1//EN" "http://www.w3.org/Graphics/SVG/1.1/DTD/svg11.dtd"><svg t="1597118804729" class="icon" viewBox="0 0 1024 1024" version="1.1" xmlns="http://www.w3.org/2000/svg" p-id="2231" xmlns:xlink="http://www.w3.org/1999/xlink" width="16" height="16"><defs><style type="text/css"></style></defs><path d="M760.797867 778.7264c-13.312 0-26.5984 12.8256-26.5984 25.642667 0 12.8256 13.294933 25.642667 26.5984 25.642666 13.2864 0 22.152533-12.817067 22.152533-25.642666 0-12.817067-8.866133-25.642667-22.152533-25.642667zM333.175467 764.484267c-18.269867 0-36.5568 12.458667-36.5568 33.237333 0 16.6144 18.286933 33.237333 36.5568 33.237333 22.843733 0 36.573867-16.6144 36.573866-33.237333 0-20.778667-13.730133-33.237333-36.573866-33.237333z" fill="#8AC787" p-id="2232"></path><path d="M1002.837333 393.173333c-66.798933-269.687467-339.584-434.158933-609.262933-367.36C123.8528 92.6208-40.576 365.3632 26.24 635.067733c66.807467 269.687467 339.549867 434.158933 609.2288 367.419734 269.610667-66.798933 434.167467-339.592533 367.368533-609.314134z m-577.0496 478.148267a55.927467 55.927467 0 1 1 0-111.8464 55.927467 55.927467 0 0 1 0 111.8464z m212.514134 0a55.936 55.936 0 0 1 0-111.854933 55.936 55.936 0 0 1 0 111.854933zM342.493867 719.035733c-9.233067-7.790933-11.537067-18.6112-13.252267-29.8496l-5.512533-35.908266-8.5504-55.773867-10.180267-66.3808-10.385067-67.7376a144904.644267 144904.644267 0 0 0-15.735466-102.562133l-2.500267-16.315734H184.968533a25.847467 25.847467 0 0 1-25.770666-25.770666v-15.5648a25.856 25.856 0 0 1 25.770666-25.762134h128.930134a25.838933 25.838933 0 0 1 25.7536 25.079467c0.938667 2.389333 1.621333 4.898133 2.013866 7.543467l14.378667 93.7984h463.291733a34.9184 34.9184 0 0 1 34.909867 34.8928 34.9184 34.9184 0 0 1-34.909867 34.909866H366.754133l8.746667 57.019734h401.450667a34.9184 34.9184 0 0 1 34.909866 34.901333 34.9184 34.9184 0 0 1-34.909866 34.909867H386.193067l8.746666 57.019733h336.1792a34.909867 34.909867 0 0 1 0 69.8112H365.013333a35.242667 35.242667 0 0 1-22.519466-8.260267z" fill="#8AC787" p-id="2233"></path></svg>