<?xml version="1.0" standalone="no"?><!DOCTYPE svg PUBLIC "-//W3C//DTD SVG 1.1//EN" "http://www.w3.org/Graphics/SVG/1.1/DTD/svg11.dtd"><svg class="icon" width="200px" height="200.00px" viewBox="0 0 1024 1024" version="1.1" xmlns="http://www.w3.org/2000/svg"><path d="M506.605966 774.867167c61.467828 0 111.759688-25.611595 111.759688-57.742505a38.650225 38.650225 0 0 0-9.313308-24.214599 139.699609 139.699609 0 0 1-101.515049 33.993572 139.699609 139.699609 0 0 1-101.51505-33.993572 38.650225 38.650225 0 0 0-9.313307 24.214599c0 31.665245 48.894863 57.742505 109.897026 57.742505" fill="#FEBF10" /><path d="M511.26262 577.425052c63.796155 0 115.950676 27.008591 115.950676 60.070833s-54.482848 60.070832-115.950676 60.070832-115.950676-27.008591-115.950676-60.070832 51.688856-60.070832 115.950676-60.070833m0 226.313368a153.203905 153.203905 0 0 1-108.034365-35.856233 38.18456 38.18456 0 0 0-8.847642 24.214599c0 33.062241 51.688856 60.070832 115.950676 60.070832s115.950676-27.008591 115.950676-60.070832a36.787564 36.787564 0 0 0-9.778973-24.214599 142.493602 142.493602 0 0 1-105.240372 35.856233" fill="#FEBF10" /><path d="M141.989985 488.948633a146.68459 146.68459 0 0 1-139.699609-151.806909A413.045179 413.045179 0 0 1 135.005005 7.916311a17.695284 17.695284 0 0 1 23.283268 26.542926A381.845599 381.845599 0 0 0 36.283948 335.279063a112.225353 112.225353 0 0 0 105.706037 118.744668 111.759688 111.759688 0 0 0 105.706038-116.882007 17.695284 17.695284 0 1 1 34.924903 0 146.68459 146.68459 0 0 1-140.630941 151.806909z" fill="#426FD9" /><path d="M388.326963 488.948633a146.68459 146.68459 0 0 1-139.699609-151.806909 17.695284 17.695284 0 1 1 34.924902 0 111.759688 111.759688 0 0 0 105.706038 116.882007 111.759688 111.759688 0 0 0 105.706038-116.882007 17.695284 17.695284 0 1 1 34.924902 0 146.68459 146.68459 0 0 1-141.562271 151.806909z" fill="#426FD9" /><path d="M634.663941 488.948633a146.68459 146.68459 0 0 1-139.699609-151.806909 17.695284 17.695284 0 1 1 34.924902 0 111.759688 111.759688 0 0 0 105.706038 116.882007 111.294022 111.294022 0 0 0 105.706038-116.882007 17.695284 17.695284 0 0 1 17.695284-17.695284 17.229619 17.229619 0 0 1 17.229618 17.695284 146.68459 146.68459 0 0 1-141.562271 151.806909z" fill="#426FD9" /><path d="M881.000919 488.948633a146.68459 146.68459 0 0 1-139.699609-151.806909 17.695284 17.695284 0 0 1 17.695284-17.695284 17.229619 17.229619 0 0 1 17.229618 17.695284 111.759688 111.759688 0 0 0 105.706038 116.882007 111.759688 111.759688 0 0 0 106.171703-116.882007s2.328327-217.465725-109.897026-302.216822a17.695284 17.695284 0 0 1-3.259657-24.214599 17.695284 17.695284 0 0 1 24.680264-3.725323c123.866987 95.927065 123.866987 320.843436 123.866987 330.62241a146.68459 146.68459 0 0 1-142.493602 151.341243z" fill="#426FD9" /><path d="M41.406267 0m13.504295 0l935.987383 0q13.504296 0 13.504296 13.504296l0 7.916311q0 13.504296-13.504296 13.504295l-935.987383 0q-13.504296 0-13.504295-13.504295l0-7.916311q0-13.504296 13.504295-13.504296Z" fill="#426FD9" /><path d="M883.794912 1023.998137h-745.064584a63.33049 63.33049 0 0 1-63.796155-63.330489v-382.311265a17.695284 17.695284 0 0 1 34.924902 0v382.311265a28.405587 28.405587 0 0 0 28.871253 28.405587h745.064584a28.405587 28.405587 0 0 0 28.871252-28.405587v-240.283329a17.695284 17.695284 0 0 1 34.924903 0v240.283329a63.33049 63.33049 0 0 1-63.796155 63.330489zM930.361448 611.418624a17.695284 17.695284 0 0 1-17.229618-17.695284v-124.798318a17.695284 17.695284 0 1 1 34.924902 0v124.798318a17.695284 17.695284 0 0 1-17.695284 17.695284z" fill="#426FD9" /></svg>