<?xml version="1.0" standalone="no"?><!DOCTYPE svg PUBLIC "-//W3C//DTD SVG 1.1//EN" "http://www.w3.org/Graphics/SVG/1.1/DTD/svg11.dtd"><svg class="icon" width="200px" height="200.00px" viewBox="0 0 1024 1024" version="1.1" xmlns="http://www.w3.org/2000/svg"><path d="M547.304727 171.240727a245.434182 245.434182 0 0 1 209.757091 230.120728l12.264727 235.752727c0.628364 11.822545 4.980364 23.179636 12.474182 32.395636l37.422546 46.08a57.134545 57.134545 0 0 1-44.357818 93.137455h-525.73091a57.111273 57.111273 0 0 1-44.357818-93.137455l37.422546-46.08c7.493818-9.216 11.869091-20.549818 12.474182-32.418909l12.264727-235.752727a245.434182 245.434182 0 0 1 209.757091-230.097455c6.749091-15.150545 19.316364-25.786182 35.304727-25.786182 16.011636 0 28.555636 10.635636 35.304727 25.786182zM512 203.636364a210.478545 210.478545 0 0 0-210.199273 199.540363l-12.264727 235.752728a90.949818 90.949818 0 0 1-20.247273 52.596363l-37.422545 46.08a22.202182 22.202182 0 0 0 17.245091 36.212364h525.754182a22.225455 22.225455 0 0 0 17.24509-36.212364l-37.422545-46.08a90.949818 90.949818 0 0 1-20.224-52.596363l-12.264727-235.752728A210.478545 210.478545 0 0 0 512 203.636364z" fill="#272636" /><path d="M395.636364 878.545455a17.454545 17.454545 0 1 1 0-34.909091h209.454545a17.454545 17.454545 0 1 1 0 34.909091h-209.454545z" fill="#FF735B" /></svg>