<?xml version="1.0" standalone="no"?><!DOCTYPE svg PUBLIC "-//W3C//DTD SVG 1.1//EN" "http://www.w3.org/Graphics/SVG/1.1/DTD/svg11.dtd"><svg t="1597139462388" class="icon" viewBox="0 0 1024 1024" version="1.1" xmlns="http://www.w3.org/2000/svg" p-id="2400" xmlns:xlink="http://www.w3.org/1999/xlink" width="16" height="16"><defs><style type="text/css"></style></defs><path d="M512 102.4c-155.648 0-265.557333 126.293333-253.610667 343.381333-8.533333 16.042667-56.32 136.533333-71.338666 189.098667s-23.893333 136.533333-7.850667 139.264 70.997333-82.602667 70.997333-82.602667A227.328 227.328 0 0 0 331.776 853.333333c-1.706667 0-90.794667 26.965333-74.410667 53.589334s229.376 10.581333 254.293334 7.850666c25.258667 2.730667 238.933333 18.432 254.293333-7.850666S693.930667 853.333333 692.224 853.333333a227.328 227.328 0 0 0 81.92-161.109333s54.613333 86.016 70.997333 82.602667 7.168-88.064-7.850666-139.264-62.805333-173.738667-71.338667-189.098667C776.874667 243.370667 678.570667 102.4 512 102.4z" fill="#5B9DF4" p-id="2401"></path></svg>