<?xml version="1.0" standalone="no"?><!DOCTYPE svg PUBLIC "-//W3C//DTD SVG 1.1//EN" "http://www.w3.org/Graphics/SVG/1.1/DTD/svg11.dtd"><svg class="icon" width="200px" height="183.18px" viewBox="0 0 1118 1024" version="1.1" xmlns="http://www.w3.org/2000/svg"><path d="M887.808 340.992l2.56-10.24c16.384-62.464-20.48-126.464-82.944-143.36L504.832 106.496c-62.464-16.896-126.976 19.968-143.872 82.432v0.512l-3.584 12.8-20.992-5.632c-62.464-16.896-126.976 20.48-143.872 82.944v0.512L175.616 343.04C123.392 356.352 86.528 403.456 87.04 457.216v352.256c0 65.024 52.736 117.76 117.76 117.76h665.088c65.024 0 117.76-52.736 117.76-117.76V457.216c-0.512-57.856-42.496-107.008-99.84-116.224z" fill="#4F46A3" /><path d="M796.16 357.888l-5.12-7.68c-0.512-0.512-0.512-1.024-1.024-1.024-11.776-11.264-26.624-18.944-42.496-23.04L373.248 225.28l8.704-30.208c11.264-41.984 49.152-71.168 92.672-71.168 8.192 0 16.896 1.024 25.088 3.072l302.592 80.896c24.576 6.656 45.568 22.528 58.368 44.544s16.384 48.128 9.728 72.704l-9.216 32.768h-65.024z" fill="#5FCEFF" /><path d="M474.624 141.824c6.656 0 13.312 1.024 20.48 2.56l302.08 80.896c41.472 11.264 66.56 53.76 55.296 95.232v0.512l-5.12 18.432h-41.984c-1.024-1.024-2.048-2.56-3.072-3.584-14.336-13.312-31.744-23.04-50.688-27.648L395.264 212.48l3.584-12.8c9.728-34.816 40.96-57.856 75.776-57.856m0-35.84c-51.2 0-96.768 34.816-110.08 84.48l-3.584 12.8-9.728 34.816 34.816 9.216L742.4 343.04c12.288 3.072 24.064 9.216 33.28 17.92l10.24 14.848h88.064l7.168-26.112 5.12-18.432 0.512-1.024c7.68-29.184 3.584-59.904-11.776-86.528-15.36-26.112-39.936-45.056-69.12-52.736l-302.08-80.896c-9.216-3.072-19.456-4.096-29.184-4.096z" fill="#4F46A3" /><path d="M193.536 357.376l18.432-68.096c10.24-38.912 46.08-66.56 86.528-66.56 7.68 0 15.36 1.024 23.04 3.072l491.52 131.584h-619.52z" fill="#5FCEFF" /><path d="M298.496 240.64c6.144 0 12.288 1.024 18.432 2.56l359.936 96.256H217.088l12.288-45.568C238.08 262.144 266.752 240.64 298.496 240.64m0-35.84c-48.64 0-91.136 32.768-103.936 79.36l-12.288 45.568-12.288 45.056h778.752L686.08 305.152 326.144 208.896c-9.216-2.56-18.432-4.096-27.648-4.096z" fill="#4F46A3" /><path d="M948.224 809.472c0 43.52-35.328 78.336-78.336 78.336H204.8c-43.52 0-78.336-35.328-78.336-78.336V457.216C126.464 414.208 161.28 378.88 204.8 378.88h665.088c43.008 0 78.336 34.816 78.336 78.336v352.256z" fill="#FF4893" /><path d="M588.288 854.016v-0.512h-46.592v-62.976l-23.552 62.976h-56.32l-60.416-159.232h9.728v-35.328l-44.544-173.568 106.496 31.744L568.32 439.296l95.232 78.336-1.024 0.512 107.008-32.768-44.544 173.056v44.032h-31.744c17.92 9.216 28.16 25.6 28.672 47.616v0.512c0 17.408-5.12 31.744-15.36 41.984-11.776 11.776-28.672 17.408-52.224 17.408h-2.56v43.52h-63.488z m63.488-100.864h1.024c2.56 0 4.096-0.512 4.608-0.512v-1.024c-1.024 0-2.048-0.512-4.608-0.512h-1.536v2.048z m-162.816-1.024l15.36-50.176h-32.768l17.408 50.176z m122.368-168.448c6.656 4.608 14.848 6.656 23.04 6.656 8.704 0 17.408-2.56 24.576-8.192 3.072-2.56 5.632-6.144 7.168-9.728 1.536-3.072 1.536-6.656 0-10.24l-25.6-30.208-25.088 16.384c-5.632 5.12-8.704 12.288-9.216 19.968 0.512 5.632 2.048 10.752 5.12 15.36z m-108.544 6.144c7.68 0 15.36-2.56 21.504-7.168 3.072-4.096 4.608-9.216 4.608-14.336-0.512-7.68-3.584-14.848-9.216-19.968l-25.088-16.384-25.6 30.208c-1.536 3.072-1.536 7.168 0 10.24 1.536 4.096 4.096 7.168 7.68 9.728 6.656 5.12 14.848 7.68 23.04 7.68h3.072z" fill="#5FCEFF" /><path d="M567.296 462.336l65.536 53.248-28.16 18.432c-9.728 8.704-15.872 20.992-15.872 33.792 0 10.24 3.584 20.48 9.728 28.16 10.752 7.68 23.04 11.776 35.84 11.776 12.288 0 25.088-4.096 35.84-11.776 5.632-4.608 9.728-10.24 12.8-16.896 3.584-8.704 3.584-18.944-1.024-27.136l-14.848-17.408 76.8-23.552-36.352 142.336H427.52l-36.352-142.336 77.312 23.04-14.848 17.408c-4.608 8.192-5.12 18.432-1.536 27.648 3.072 6.656 7.168 12.288 12.8 16.896 9.728 7.68 21.504 11.776 33.792 11.776h3.584c12.288 0 24.576-4.608 34.304-12.288 6.144-7.68 9.216-16.896 9.728-27.136-0.512-13.312-6.144-25.6-16.384-34.304l-28.16-18.432 65.536-53.248m139.776 202.24v19.968H428.544v-19.968h278.528m-118.784 47.616v123.392h-28.672v-123.392h28.672m-36.352 0l-46.592 123.392h-31.744l-47.104-123.392h29.696l29.696 86.016c1.536 4.096 2.56 8.192 4.096 12.288 0-1.024 0.512-2.048 1.024-2.56 0.512-1.536 1.536-5.12 2.56-9.216l26.624-86.528h31.744m105.984 0c29.696 1.024 45.568 13.824 46.592 38.912 0 28.16-15.872 41.472-49.664 41.472h-20.48v43.52h-28.16v-123.392l51.712-0.512m-24.064 59.392h18.432l0.512-0.512c14.848-0.512 22.528-7.168 22.528-19.456-0.512-11.776-7.68-18.432-22.528-18.432h-19.456v38.4m-66.048-355.328l-22.528 18.432-65.024 53.248-11.264 9.216-67.072-19.968-60.416-17.92 15.872 61.44 35.84 140.8v14.848h-17.92l18.432 48.64 47.104 123.392 8.704 23.04H570.368v0.512h99.84v-44.544c20.992-2.56 37.376-9.728 49.664-22.016 9.216-9.216 20.48-26.624 20.48-54.784v-1.024c-0.512-10.752-2.56-20.48-6.144-29.184h8.704V660.48l35.84-140.288 15.872-61.952-60.928 18.944-66.048 20.48-11.776-9.728-65.536-53.248-23.04-18.432z m-79.872 151.552l8.704-10.24 2.048-2.048 10.24 6.656c1.536 1.536 2.56 4.096 2.56 6.144 0 0.512 0 1.024-0.512 1.536-2.56 1.024-5.12 2.048-7.68 2.048h-3.072c-4.608 0-9.216-1.536-12.288-4.096z m139.776-5.12l10.24-6.656 2.048 2.56 8.704 9.728c-4.096 2.56-8.704 4.096-13.824 4.096-3.072 0-6.656-0.512-9.216-2.048v-2.048c-0.512-1.536 0.512-4.096 2.048-5.632z" fill="#4F46A3" /></svg>